<svg width="16" height="16" viewBox="0 0 16 16" fill="none" xmlns="http://www.w3.org/2000/svg">
<circle cx="8" cy="8" r="8" fill="#009FDF"/>
<path d="M10.4516 13.2844H6.00781V12.7711C6.12969 12.7617 6.24922 12.75 6.36641 12.7359C6.48359 12.7219 6.58438 12.6984 6.66875 12.6656C6.81875 12.6094 6.92422 12.5297 6.98516 12.4266C7.04609 12.3187 7.07656 12.1781 7.07656 12.0047V7.9125C7.07656 7.74844 7.03906 7.60547 6.96406 7.48359C6.88906 7.35703 6.79531 7.25625 6.68281 7.18125C6.59844 7.125 6.46953 7.07109 6.29609 7.01953C6.12734 6.96797 5.97266 6.93516 5.83203 6.92109V6.40781L9.27734 6.225L9.38281 6.33047V11.9133C9.38281 12.0773 9.41797 12.218 9.48828 12.3352C9.55859 12.4477 9.65938 12.532 9.79063 12.5883C9.88438 12.6305 9.9875 12.668 10.1 12.7008C10.2125 12.7336 10.3297 12.757 10.4516 12.7711V13.2844ZM9.425 3.69375C9.425 4.05 9.28672 4.35469 9.01016 4.60781C8.73828 4.85625 8.41484 4.98047 8.03984 4.98047C7.66016 4.98047 7.33203 4.85625 7.05547 4.60781C6.78359 4.35469 6.64766 4.05 6.64766 3.69375C6.64766 3.3375 6.78359 3.03281 7.05547 2.77969C7.33203 2.52656 7.66016 2.4 8.03984 2.4C8.41953 2.4 8.74531 2.52656 9.01719 2.77969C9.28906 3.03281 9.425 3.3375 9.425 3.69375Z" fill="white"/>
</svg>
