<svg width="20" height="20" viewBox="0 0 20 20" fill="none" xmlns="http://www.w3.org/2000/svg">
<circle cx="10" cy="10" r="9" fill="white" stroke="#039BE5"/>
<path d="M13.0645 16.6055H7.50977V15.9639C7.66211 15.9521 7.81152 15.9375 7.95801 15.9199C8.10449 15.9023 8.23047 15.873 8.33594 15.832C8.52344 15.7617 8.65527 15.6621 8.73145 15.5332C8.80762 15.3984 8.8457 15.2227 8.8457 15.0059V9.89062C8.8457 9.68555 8.79883 9.50684 8.70508 9.35449C8.61133 9.19629 8.49414 9.07031 8.35352 8.97656C8.24805 8.90625 8.08691 8.83887 7.87012 8.77441C7.65918 8.70996 7.46582 8.66895 7.29004 8.65137V8.00977L11.5967 7.78125L11.7285 7.91309V14.8916C11.7285 15.0967 11.7725 15.2725 11.8604 15.4189C11.9482 15.5596 12.0742 15.665 12.2383 15.7354C12.3555 15.7881 12.4844 15.835 12.625 15.876C12.7656 15.917 12.9121 15.9463 13.0645 15.9639V16.6055ZM11.7812 4.61719C11.7812 5.0625 11.6084 5.44336 11.2627 5.75977C10.9229 6.07031 10.5186 6.22559 10.0498 6.22559C9.5752 6.22559 9.16504 6.07031 8.81934 5.75977C8.47949 5.44336 8.30957 5.0625 8.30957 4.61719C8.30957 4.17188 8.47949 3.79102 8.81934 3.47461C9.16504 3.1582 9.5752 3 10.0498 3C10.5244 3 10.9316 3.1582 11.2715 3.47461C11.6113 3.79102 11.7812 4.17188 11.7812 4.61719Z" fill="#039BE5"/>
</svg>
